<?xml version="1.0" encoding="UTF-8" standalone="no"?><svg xmlns="http://www.w3.org/2000/svg" xmlns:xlink="http://www.w3.org/1999/xlink" contentScriptType="application/ecmascript" contentStyleType="text/css" height="780px" preserveAspectRatio="none" style="width:1430px;height:780px;" version="1.1" viewBox="0 0 1430 780" width="1430px" zoomAndPan="magnify"><defs><filter height="300%" id="f17ip02j32orzz" width="300%" x="-1" y="-1"><feGaussianBlur result="blurOut" stdDeviation="2.0"/><feColorMatrix in="blurOut" result="blurOut2" type="matrix" values="0 0 0 0 0 0 0 0 0 0 0 0 0 0 0 0 0 0 .4 0"/><feOffset dx="4.0" dy="4.0" in="blurOut2" result="blurOut3"/><feBlend in="SourceGraphic" in2="blurOut3" mode="normal"/></filter></defs><g><!--MD5=[7283a9eed84464550b6d5ebf39c68b05]
class Mastermind--><rect fill="#FEFECE" filter="url(#f17ip02j32orzz)" height="60.8047" id="Mastermind" style="stroke: #A80036; stroke-width: 1.5;" width="105" x="612" y="8"/><ellipse cx="627" cy="24" fill="#ADD1B2" rx="11" ry="11" style="stroke: #A80036; stroke-width: 1.0;"/><path d="M629.3438,19.6719 L629.5156,19.75 C629.7344,19.4375 629.9375,19.3438 630.2344,19.3438 C630.5313,19.3438 630.8125,19.4844 630.9688,19.75 C631.0625,19.9063 631.0781,20.0313 631.0781,20.4688 L631.0781,21.8906 C631.0781,22.3125 631.0469,22.5 630.9375,22.6563 C630.7656,22.875 630.5,23.0156 630.2344,23.0156 C630.0156,23.0156 629.7813,22.9063 629.6406,22.7656 C629.5,22.6406 629.4688,22.5156 629.4063,22.1094 C629.3125,21.7031 629.1406,21.4844 628.6563,21.2031 C628.1875,20.9531 627.5781,20.7969 627,20.7969 C625.2656,20.7969 624.0156,22.1094 624.0156,23.8906 L624.0156,24.9844 C624.0156,26.6875 625.3125,27.7813 627.3594,27.7813 C628.125,27.7813 628.8125,27.6563 629.2344,27.3906 C629.4219,27.2969 629.4219,27.2969 629.875,26.8125 C630.0625,26.625 630.2656,26.5469 630.4844,26.5469 C630.9531,26.5469 631.3438,26.9375 631.3438,27.3906 C631.3438,27.7813 631.0156,28.2344 630.4375,28.6406 C629.6875,29.1875 628.5313,29.4844 627.3125,29.4844 C624.4219,29.4844 622.3125,27.5938 622.3125,25.0156 L622.3125,23.8906 C622.3125,21.1719 624.3125,19.0938 626.9375,19.0938 C627.8125,19.0938 628.4063,19.2344 629.3438,19.6719 Z "/><text fill="#000000" font-family="sans-serif" font-size="12" lengthAdjust="spacingAndGlyphs" textLength="73" x="641" y="28.1543">Mastermind</text><line style="stroke: #A80036; stroke-width: 1.5;" x1="613" x2="716" y1="40" y2="40"/><line style="stroke: #A80036; stroke-width: 1.5;" x1="613" x2="716" y1="48" y2="48"/><text fill="#000000" font-family="sans-serif" font-size="11" lengthAdjust="spacingAndGlyphs" textLength="31" x="618" y="62.2104">play()</text><!--MD5=[42fa18dda7351a0ae87d9497de925436]
class Logic--><rect fill="#FEFECE" filter="url(#f17ip02j32orzz)" height="73.6094" id="Logic" style="stroke: #A80036; stroke-width: 1.5;" width="94" x="381.5" y="250"/><ellipse cx="410" cy="266" fill="#ADD1B2" rx="11" ry="11" style="stroke: #A80036; stroke-width: 1.0;"/><path d="M412.3438,261.6719 L412.5156,261.75 C412.7344,261.4375 412.9375,261.3438 413.2344,261.3438 C413.5313,261.3438 413.8125,261.4844 413.9688,261.75 C414.0625,261.9063 414.0781,262.0313 414.0781,262.4688 L414.0781,263.8906 C414.0781,264.3125 414.0469,264.5 413.9375,264.6563 C413.7656,264.875 413.5,265.0156 413.2344,265.0156 C413.0156,265.0156 412.7813,264.9063 412.6406,264.7656 C412.5,264.6406 412.4688,264.5156 412.4063,264.1094 C412.3125,263.7031 412.1406,263.4844 411.6563,263.2031 C411.1875,262.9531 410.5781,262.7969 410,262.7969 C408.2656,262.7969 407.0156,264.1094 407.0156,265.8906 L407.0156,266.9844 C407.0156,268.6875 408.3125,269.7813 410.3594,269.7813 C411.125,269.7813 411.8125,269.6563 412.2344,269.3906 C412.4219,269.2969 412.4219,269.2969 412.875,268.8125 C413.0625,268.625 413.2656,268.5469 413.4844,268.5469 C413.9531,268.5469 414.3438,268.9375 414.3438,269.3906 C414.3438,269.7813 414.0156,270.2344 413.4375,270.6406 C412.6875,271.1875 411.5313,271.4844 410.3125,271.4844 C407.4219,271.4844 405.3125,269.5938 405.3125,267.0156 L405.3125,265.8906 C405.3125,263.1719 407.3125,261.0938 409.9375,261.0938 C410.8125,261.0938 411.4063,261.2344 412.3438,261.6719 Z "/><text fill="#000000" font-family="sans-serif" font-size="12" lengthAdjust="spacingAndGlyphs" textLength="32" x="427" y="270.1543">Logic</text><line style="stroke: #A80036; stroke-width: 1.5;" x1="382.5" x2="474.5" y1="282" y2="282"/><text fill="#000000" font-family="sans-serif" font-size="11" lengthAdjust="spacingAndGlyphs" textLength="54" x="387.5" y="296.2104">mapstate</text><line style="stroke: #A80036; stroke-width: 1.5;" x1="382.5" x2="474.5" y1="302.8047" y2="302.8047"/><text fill="#000000" font-family="sans-serif" font-size="11" lengthAdjust="spacingAndGlyphs" textLength="82" x="387.5" y="317.0151">getController()</text><!--MD5=[c045e12321b83266d36d22b9096c24ea]
class View--><rect fill="#FEFECE" filter="url(#f17ip02j32orzz)" height="60.8047" id="View" style="stroke: #A80036; stroke-width: 1.5;" width="117" x="698" y="129"/><ellipse cx="738.2" cy="145" fill="#B4A7E5" rx="11" ry="11" style="stroke: #A80036; stroke-width: 1.0;"/><path d="M739.1531,141.7813 L739.1531,148.2969 L740.8719,148.2969 C741.325,148.2969 741.4656,148.3281 741.6375,148.4531 C741.8719,148.625 741.9813,148.875 741.9813,149.1563 C741.9813,149.7188 741.6219,150 740.8719,150 L735.7313,150 C735.325,150 735.1219,149.9531 734.9656,149.8281 C734.7469,149.6719 734.6063,149.4063 734.6063,149.1563 C734.6063,148.8594 734.7625,148.5781 735.0125,148.4219 C735.1688,148.3125 735.2938,148.2969 735.7313,148.2969 L737.45,148.2969 L737.45,141.7813 L735.7313,141.7813 C735.3094,141.7813 735.1219,141.75 734.9656,141.6406 C734.7469,141.4688 734.6063,141.2188 734.6063,140.9375 C734.6063,140.6563 734.7625,140.3594 735.0125,140.2031 C735.1688,140.1094 735.2938,140.0938 735.7313,140.0938 L740.8719,140.0938 C741.325,140.0938 741.4656,140.125 741.6375,140.2344 C741.8719,140.4063 741.9813,140.6719 741.9813,140.9375 C741.9813,141.2344 741.8406,141.5156 741.575,141.6719 C741.45,141.75 741.2625,141.7813 740.8719,141.7813 Z "/><text fill="#000000" font-family="sans-serif" font-size="12" font-style="italic" lengthAdjust="spacingAndGlyphs" textLength="29" x="757.8" y="149.1543">View</text><line style="stroke: #A80036; stroke-width: 1.5;" x1="699" x2="814" y1="161" y2="161"/><line style="stroke: #A80036; stroke-width: 1.5;" x1="699" x2="814" y1="169" y2="169"/><text fill="#000000" font-family="sans-serif" font-size="11" lengthAdjust="spacingAndGlyphs" textLength="105" x="704" y="183.2104">interact(controller)</text><!--MD5=[1d7ba1c7002d54515419844fbd155368]
class Controller--><rect fill="#FEFECE" filter="url(#f17ip02j32orzz)" height="48" id="Controller" style="stroke: #A80036; stroke-width: 1.5;" width="93" x="638" y="263"/><ellipse cx="653" cy="279" fill="#ADD1B2" rx="11" ry="11" style="stroke: #A80036; stroke-width: 1.0;"/><path d="M655.3438,274.6719 L655.5156,274.75 C655.7344,274.4375 655.9375,274.3438 656.2344,274.3438 C656.5313,274.3438 656.8125,274.4844 656.9688,274.75 C657.0625,274.9063 657.0781,275.0313 657.0781,275.4688 L657.0781,276.8906 C657.0781,277.3125 657.0469,277.5 656.9375,277.6563 C656.7656,277.875 656.5,278.0156 656.2344,278.0156 C656.0156,278.0156 655.7813,277.9063 655.6406,277.7656 C655.5,277.6406 655.4688,277.5156 655.4063,277.1094 C655.3125,276.7031 655.1406,276.4844 654.6563,276.2031 C654.1875,275.9531 653.5781,275.7969 653,275.7969 C651.2656,275.7969 650.0156,277.1094 650.0156,278.8906 L650.0156,279.9844 C650.0156,281.6875 651.3125,282.7813 653.3594,282.7813 C654.125,282.7813 654.8125,282.6563 655.2344,282.3906 C655.4219,282.2969 655.4219,282.2969 655.875,281.8125 C656.0625,281.625 656.2656,281.5469 656.4844,281.5469 C656.9531,281.5469 657.3438,281.9375 657.3438,282.3906 C657.3438,282.7813 657.0156,283.2344 656.4375,283.6406 C655.6875,284.1875 654.5313,284.4844 653.3125,284.4844 C650.4219,284.4844 648.3125,282.5938 648.3125,280.0156 L648.3125,278.8906 C648.3125,276.1719 650.3125,274.0938 652.9375,274.0938 C653.8125,274.0938 654.4063,274.2344 655.3438,274.6719 Z "/><text fill="#000000" font-family="sans-serif" font-size="12" lengthAdjust="spacingAndGlyphs" textLength="61" x="667" y="283.1543">Controller</text><line style="stroke: #A80036; stroke-width: 1.5;" x1="639" x2="730" y1="295" y2="295"/><line style="stroke: #A80036; stroke-width: 1.5;" x1="639" x2="730" y1="303" y2="303"/><!--MD5=[51d729737bd84a4c43136dd336c2eea1]
class ConsoleView--><rect fill="#FEFECE" filter="url(#f17ip02j32orzz)" height="48" id="ConsoleView" style="stroke: #A80036; stroke-width: 1.5;" width="110" x="1014.5" y="390.5"/><ellipse cx="1029.5" cy="406.5" fill="#ADD1B2" rx="11" ry="11" style="stroke: #A80036; stroke-width: 1.0;"/><path d="M1031.8438,402.1719 L1032.0156,402.25 C1032.2344,401.9375 1032.4375,401.8438 1032.7344,401.8438 C1033.0313,401.8438 1033.3125,401.9844 1033.4688,402.25 C1033.5625,402.4063 1033.5781,402.5313 1033.5781,402.9688 L1033.5781,404.3906 C1033.5781,404.8125 1033.5469,405 1033.4375,405.1563 C1033.2656,405.375 1033,405.5156 1032.7344,405.5156 C1032.5156,405.5156 1032.2813,405.4063 1032.1406,405.2656 C1032,405.1406 1031.9688,405.0156 1031.9063,404.6094 C1031.8125,404.2031 1031.6406,403.9844 1031.1563,403.7031 C1030.6875,403.4531 1030.0781,403.2969 1029.5,403.2969 C1027.7656,403.2969 1026.5156,404.6094 1026.5156,406.3906 L1026.5156,407.4844 C1026.5156,409.1875 1027.8125,410.2813 1029.8594,410.2813 C1030.625,410.2813 1031.3125,410.1563 1031.7344,409.8906 C1031.9219,409.7969 1031.9219,409.7969 1032.375,409.3125 C1032.5625,409.125 1032.7656,409.0469 1032.9844,409.0469 C1033.4531,409.0469 1033.8438,409.4375 1033.8438,409.8906 C1033.8438,410.2813 1033.5156,410.7344 1032.9375,411.1406 C1032.1875,411.6875 1031.0313,411.9844 1029.8125,411.9844 C1026.9219,411.9844 1024.8125,410.0938 1024.8125,407.5156 L1024.8125,406.3906 C1024.8125,403.6719 1026.8125,401.5938 1029.4375,401.5938 C1030.3125,401.5938 1030.9063,401.7344 1031.8438,402.1719 Z "/><text fill="#000000" font-family="sans-serif" font-size="12" lengthAdjust="spacingAndGlyphs" textLength="78" x="1043.5" y="410.6543">ConsoleView</text><line style="stroke: #A80036; stroke-width: 1.5;" x1="1015.5" x2="1123.5" y1="422.5" y2="422.5"/><line style="stroke: #A80036; stroke-width: 1.5;" x1="1015.5" x2="1123.5" y1="430.5" y2="430.5"/><!--MD5=[94936c1138d9bd95716606726ba703b1]
class SecretCombinationView--><rect fill="#FEFECE" filter="url(#f17ip02j32orzz)" height="48" id="SecretCombinationView" style="stroke: #A80036; stroke-width: 1.5;" width="179" x="1007" y="613"/><ellipse cx="1022" cy="629" fill="#ADD1B2" rx="11" ry="11" style="stroke: #A80036; stroke-width: 1.0;"/><path d="M1024.3438,624.6719 L1024.5156,624.75 C1024.7344,624.4375 1024.9375,624.3438 1025.2344,624.3438 C1025.5313,624.3438 1025.8125,624.4844 1025.9688,624.75 C1026.0625,624.9063 1026.0781,625.0313 1026.0781,625.4688 L1026.0781,626.8906 C1026.0781,627.3125 1026.0469,627.5 1025.9375,627.6563 C1025.7656,627.875 1025.5,628.0156 1025.2344,628.0156 C1025.0156,628.0156 1024.7813,627.9063 1024.6406,627.7656 C1024.5,627.6406 1024.4688,627.5156 1024.4063,627.1094 C1024.3125,626.7031 1024.1406,626.4844 1023.6563,626.2031 C1023.1875,625.9531 1022.5781,625.7969 1022,625.7969 C1020.2656,625.7969 1019.0156,627.1094 1019.0156,628.8906 L1019.0156,629.9844 C1019.0156,631.6875 1020.3125,632.7813 1022.3594,632.7813 C1023.125,632.7813 1023.8125,632.6563 1024.2344,632.3906 C1024.4219,632.2969 1024.4219,632.2969 1024.875,631.8125 C1025.0625,631.625 1025.2656,631.5469 1025.4844,631.5469 C1025.9531,631.5469 1026.3438,631.9375 1026.3438,632.3906 C1026.3438,632.7813 1026.0156,633.2344 1025.4375,633.6406 C1024.6875,634.1875 1023.5313,634.4844 1022.3125,634.4844 C1019.4219,634.4844 1017.3125,632.5938 1017.3125,630.0156 L1017.3125,628.8906 C1017.3125,626.1719 1019.3125,624.0938 1021.9375,624.0938 C1022.8125,624.0938 1023.4063,624.2344 1024.3438,624.6719 Z "/><text fill="#000000" font-family="sans-serif" font-size="12" lengthAdjust="spacingAndGlyphs" textLength="147" x="1036" y="633.1543">SecretCombinationView</text><line style="stroke: #A80036; stroke-width: 1.5;" x1="1008" x2="1185" y1="645" y2="645"/><line style="stroke: #A80036; stroke-width: 1.5;" x1="1008" x2="1185" y1="653" y2="653"/><!--MD5=[0523615cfa2fa70c8ab764401f29a299]
class ProposedCombinationView--><rect fill="#FEFECE" filter="url(#f17ip02j32orzz)" height="48" id="ProposedCombinationView" style="stroke: #A80036; stroke-width: 1.5;" width="198" x="1221.5" y="613"/><ellipse cx="1236.5" cy="629" fill="#ADD1B2" rx="11" ry="11" style="stroke: #A80036; stroke-width: 1.0;"/><path d="M1238.8438,624.6719 L1239.0156,624.75 C1239.2344,624.4375 1239.4375,624.3438 1239.7344,624.3438 C1240.0313,624.3438 1240.3125,624.4844 1240.4688,624.75 C1240.5625,624.9063 1240.5781,625.0313 1240.5781,625.4688 L1240.5781,626.8906 C1240.5781,627.3125 1240.5469,627.5 1240.4375,627.6563 C1240.2656,627.875 1240,628.0156 1239.7344,628.0156 C1239.5156,628.0156 1239.2813,627.9063 1239.1406,627.7656 C1239,627.6406 1238.9688,627.5156 1238.9063,627.1094 C1238.8125,626.7031 1238.6406,626.4844 1238.1563,626.2031 C1237.6875,625.9531 1237.0781,625.7969 1236.5,625.7969 C1234.7656,625.7969 1233.5156,627.1094 1233.5156,628.8906 L1233.5156,629.9844 C1233.5156,631.6875 1234.8125,632.7813 1236.8594,632.7813 C1237.625,632.7813 1238.3125,632.6563 1238.7344,632.3906 C1238.9219,632.2969 1238.9219,632.2969 1239.375,631.8125 C1239.5625,631.625 1239.7656,631.5469 1239.9844,631.5469 C1240.4531,631.5469 1240.8438,631.9375 1240.8438,632.3906 C1240.8438,632.7813 1240.5156,633.2344 1239.9375,633.6406 C1239.1875,634.1875 1238.0313,634.4844 1236.8125,634.4844 C1233.9219,634.4844 1231.8125,632.5938 1231.8125,630.0156 L1231.8125,628.8906 C1231.8125,626.1719 1233.8125,624.0938 1236.4375,624.0938 C1237.3125,624.0938 1237.9063,624.2344 1238.8438,624.6719 Z "/><text fill="#000000" font-family="sans-serif" font-size="12" lengthAdjust="spacingAndGlyphs" textLength="166" x="1250.5" y="633.1543">ProposedCombinationView</text><line style="stroke: #A80036; stroke-width: 1.5;" x1="1222.5" x2="1418.5" y1="645" y2="645"/><line style="stroke: #A80036; stroke-width: 1.5;" x1="1222.5" x2="1418.5" y1="653" y2="653"/><!--MD5=[cc7ea0d03b613c36af8ee78728fe5d91]
class ResultCombinationView--><rect fill="#FEFECE" filter="url(#f17ip02j32orzz)" height="48" id="ResultCombinationView" style="stroke: #A80036; stroke-width: 1.5;" width="177" x="795" y="613"/><ellipse cx="810" cy="629" fill="#ADD1B2" rx="11" ry="11" style="stroke: #A80036; stroke-width: 1.0;"/><path d="M812.3438,624.6719 L812.5156,624.75 C812.7344,624.4375 812.9375,624.3438 813.2344,624.3438 C813.5313,624.3438 813.8125,624.4844 813.9688,624.75 C814.0625,624.9063 814.0781,625.0313 814.0781,625.4688 L814.0781,626.8906 C814.0781,627.3125 814.0469,627.5 813.9375,627.6563 C813.7656,627.875 813.5,628.0156 813.2344,628.0156 C813.0156,628.0156 812.7813,627.9063 812.6406,627.7656 C812.5,627.6406 812.4688,627.5156 812.4063,627.1094 C812.3125,626.7031 812.1406,626.4844 811.6563,626.2031 C811.1875,625.9531 810.5781,625.7969 810,625.7969 C808.2656,625.7969 807.0156,627.1094 807.0156,628.8906 L807.0156,629.9844 C807.0156,631.6875 808.3125,632.7813 810.3594,632.7813 C811.125,632.7813 811.8125,632.6563 812.2344,632.3906 C812.4219,632.2969 812.4219,632.2969 812.875,631.8125 C813.0625,631.625 813.2656,631.5469 813.4844,631.5469 C813.9531,631.5469 814.3438,631.9375 814.3438,632.3906 C814.3438,632.7813 814.0156,633.2344 813.4375,633.6406 C812.6875,634.1875 811.5313,634.4844 810.3125,634.4844 C807.4219,634.4844 805.3125,632.5938 805.3125,630.0156 L805.3125,628.8906 C805.3125,626.1719 807.3125,624.0938 809.9375,624.0938 C810.8125,624.0938 811.4063,624.2344 812.3438,624.6719 Z "/><text fill="#000000" font-family="sans-serif" font-size="12" lengthAdjust="spacingAndGlyphs" textLength="145" x="824" y="633.1543">ResultCombinationView</text><line style="stroke: #A80036; stroke-width: 1.5;" x1="796" x2="971" y1="645" y2="645"/><line style="stroke: #A80036; stroke-width: 1.5;" x1="796" x2="971" y1="653" y2="653"/><!--MD5=[47c371471411cfedeee61b1a5bdaee47]
class StartController--><rect fill="#FEFECE" filter="url(#f17ip02j32orzz)" height="48" id="StartController" style="stroke: #A80036; stroke-width: 1.5;" width="124" x="497.5" y="505"/><ellipse cx="512.5" cy="521" fill="#ADD1B2" rx="11" ry="11" style="stroke: #A80036; stroke-width: 1.0;"/><path d="M514.8438,516.6719 L515.0156,516.75 C515.2344,516.4375 515.4375,516.3438 515.7344,516.3438 C516.0313,516.3438 516.3125,516.4844 516.4688,516.75 C516.5625,516.9063 516.5781,517.0313 516.5781,517.4688 L516.5781,518.8906 C516.5781,519.3125 516.5469,519.5 516.4375,519.6563 C516.2656,519.875 516,520.0156 515.7344,520.0156 C515.5156,520.0156 515.2813,519.9063 515.1406,519.7656 C515,519.6406 514.9688,519.5156 514.9063,519.1094 C514.8125,518.7031 514.6406,518.4844 514.1563,518.2031 C513.6875,517.9531 513.0781,517.7969 512.5,517.7969 C510.7656,517.7969 509.5156,519.1094 509.5156,520.8906 L509.5156,521.9844 C509.5156,523.6875 510.8125,524.7813 512.8594,524.7813 C513.625,524.7813 514.3125,524.6563 514.7344,524.3906 C514.9219,524.2969 514.9219,524.2969 515.375,523.8125 C515.5625,523.625 515.7656,523.5469 515.9844,523.5469 C516.4531,523.5469 516.8438,523.9375 516.8438,524.3906 C516.8438,524.7813 516.5156,525.2344 515.9375,525.6406 C515.1875,526.1875 514.0313,526.4844 512.8125,526.4844 C509.9219,526.4844 507.8125,524.5938 507.8125,522.0156 L507.8125,520.8906 C507.8125,518.1719 509.8125,516.0938 512.4375,516.0938 C513.3125,516.0938 513.9063,516.2344 514.8438,516.6719 Z "/><text fill="#000000" font-family="sans-serif" font-size="12" lengthAdjust="spacingAndGlyphs" textLength="92" x="526.5" y="525.1543">StartController</text><line style="stroke: #A80036; stroke-width: 1.5;" x1="498.5" x2="620.5" y1="537" y2="537"/><line style="stroke: #A80036; stroke-width: 1.5;" x1="498.5" x2="620.5" y1="545" y2="545"/><!--MD5=[92433bfbd7559c1d4e4a44c9d1c48b0e]
class ProposeCombinationController--><rect fill="#FEFECE" filter="url(#f17ip02j32orzz)" height="48" id="ProposeCombinationController" style="stroke: #A80036; stroke-width: 1.5;" width="223" x="6" y="505"/><ellipse cx="21" cy="521" fill="#ADD1B2" rx="11" ry="11" style="stroke: #A80036; stroke-width: 1.0;"/><path d="M23.3438,516.6719 L23.5156,516.75 C23.7344,516.4375 23.9375,516.3438 24.2344,516.3438 C24.5313,516.3438 24.8125,516.4844 24.9688,516.75 C25.0625,516.9063 25.0781,517.0313 25.0781,517.4688 L25.0781,518.8906 C25.0781,519.3125 25.0469,519.5 24.9375,519.6563 C24.7656,519.875 24.5,520.0156 24.2344,520.0156 C24.0156,520.0156 23.7813,519.9063 23.6406,519.7656 C23.5,519.6406 23.4688,519.5156 23.4063,519.1094 C23.3125,518.7031 23.1406,518.4844 22.6563,518.2031 C22.1875,517.9531 21.5781,517.7969 21,517.7969 C19.2656,517.7969 18.0156,519.1094 18.0156,520.8906 L18.0156,521.9844 C18.0156,523.6875 19.3125,524.7813 21.3594,524.7813 C22.125,524.7813 22.8125,524.6563 23.2344,524.3906 C23.4219,524.2969 23.4219,524.2969 23.875,523.8125 C24.0625,523.625 24.2656,523.5469 24.4844,523.5469 C24.9531,523.5469 25.3438,523.9375 25.3438,524.3906 C25.3438,524.7813 25.0156,525.2344 24.4375,525.6406 C23.6875,526.1875 22.5313,526.4844 21.3125,526.4844 C18.4219,526.4844 16.3125,524.5938 16.3125,522.0156 L16.3125,520.8906 C16.3125,518.1719 18.3125,516.0938 20.9375,516.0938 C21.8125,516.0938 22.4063,516.2344 23.3438,516.6719 Z "/><text fill="#000000" font-family="sans-serif" font-size="12" lengthAdjust="spacingAndGlyphs" textLength="191" x="35" y="525.1543">ProposeCombinationController</text><line style="stroke: #A80036; stroke-width: 1.5;" x1="7" x2="228" y1="537" y2="537"/><line style="stroke: #A80036; stroke-width: 1.5;" x1="7" x2="228" y1="545" y2="545"/><!--MD5=[1a47bbf44ccee225df9b18c5b6629853]
class ResumeController--><rect fill="#FEFECE" filter="url(#f17ip02j32orzz)" height="48" id="ResumeController" style="stroke: #A80036; stroke-width: 1.5;" width="143" x="679" y="505"/><ellipse cx="694" cy="521" fill="#ADD1B2" rx="11" ry="11" style="stroke: #A80036; stroke-width: 1.0;"/><path d="M696.3438,516.6719 L696.5156,516.75 C696.7344,516.4375 696.9375,516.3438 697.2344,516.3438 C697.5313,516.3438 697.8125,516.4844 697.9688,516.75 C698.0625,516.9063 698.0781,517.0313 698.0781,517.4688 L698.0781,518.8906 C698.0781,519.3125 698.0469,519.5 697.9375,519.6563 C697.7656,519.875 697.5,520.0156 697.2344,520.0156 C697.0156,520.0156 696.7813,519.9063 696.6406,519.7656 C696.5,519.6406 696.4688,519.5156 696.4063,519.1094 C696.3125,518.7031 696.1406,518.4844 695.6563,518.2031 C695.1875,517.9531 694.5781,517.7969 694,517.7969 C692.2656,517.7969 691.0156,519.1094 691.0156,520.8906 L691.0156,521.9844 C691.0156,523.6875 692.3125,524.7813 694.3594,524.7813 C695.125,524.7813 695.8125,524.6563 696.2344,524.3906 C696.4219,524.2969 696.4219,524.2969 696.875,523.8125 C697.0625,523.625 697.2656,523.5469 697.4844,523.5469 C697.9531,523.5469 698.3438,523.9375 698.3438,524.3906 C698.3438,524.7813 698.0156,525.2344 697.4375,525.6406 C696.6875,526.1875 695.5313,526.4844 694.3125,526.4844 C691.4219,526.4844 689.3125,524.5938 689.3125,522.0156 L689.3125,520.8906 C689.3125,518.1719 691.3125,516.0938 693.9375,516.0938 C694.8125,516.0938 695.4063,516.2344 696.3438,516.6719 Z "/><text fill="#000000" font-family="sans-serif" font-size="12" lengthAdjust="spacingAndGlyphs" textLength="111" x="708" y="525.1543">ResumeController</text><line style="stroke: #A80036; stroke-width: 1.5;" x1="680" x2="821" y1="537" y2="537"/><line style="stroke: #A80036; stroke-width: 1.5;" x1="680" x2="821" y1="545" y2="545"/><!--MD5=[b6dcce5e5ef3c84b0b048d11301373dd]
class Game--><rect fill="#FEFECE" filter="url(#f17ip02j32orzz)" height="48" id="Game" style="stroke: #A80036; stroke-width: 1.5;" width="68" x="350.5" y="390.5"/><ellipse cx="365.5" cy="406.5" fill="#ADD1B2" rx="11" ry="11" style="stroke: #A80036; stroke-width: 1.0;"/><path d="M367.8438,402.1719 L368.0156,402.25 C368.2344,401.9375 368.4375,401.8438 368.7344,401.8438 C369.0313,401.8438 369.3125,401.9844 369.4688,402.25 C369.5625,402.4063 369.5781,402.5313 369.5781,402.9688 L369.5781,404.3906 C369.5781,404.8125 369.5469,405 369.4375,405.1563 C369.2656,405.375 369,405.5156 368.7344,405.5156 C368.5156,405.5156 368.2813,405.4063 368.1406,405.2656 C368,405.1406 367.9688,405.0156 367.9063,404.6094 C367.8125,404.2031 367.6406,403.9844 367.1563,403.7031 C366.6875,403.4531 366.0781,403.2969 365.5,403.2969 C363.7656,403.2969 362.5156,404.6094 362.5156,406.3906 L362.5156,407.4844 C362.5156,409.1875 363.8125,410.2813 365.8594,410.2813 C366.625,410.2813 367.3125,410.1563 367.7344,409.8906 C367.9219,409.7969 367.9219,409.7969 368.375,409.3125 C368.5625,409.125 368.7656,409.0469 368.9844,409.0469 C369.4531,409.0469 369.8438,409.4375 369.8438,409.8906 C369.8438,410.2813 369.5156,410.7344 368.9375,411.1406 C368.1875,411.6875 367.0313,411.9844 365.8125,411.9844 C362.9219,411.9844 360.8125,410.0938 360.8125,407.5156 L360.8125,406.3906 C360.8125,403.6719 362.8125,401.5938 365.4375,401.5938 C366.3125,401.5938 366.9063,401.7344 367.8438,402.1719 Z "/><text fill="#000000" font-family="sans-serif" font-size="12" lengthAdjust="spacingAndGlyphs" textLength="36" x="379.5" y="410.6543">Game</text><line style="stroke: #A80036; stroke-width: 1.5;" x1="351.5" x2="417.5" y1="422.5" y2="422.5"/><line style="stroke: #A80036; stroke-width: 1.5;" x1="351.5" x2="417.5" y1="430.5" y2="430.5"/><!--MD5=[60d6b92408f98aed8df94d5c6e04aa63]
class State--><rect fill="#FEFECE" filter="url(#f17ip02j32orzz)" height="48" id="State" style="stroke: #A80036; stroke-width: 1.5;" width="66" x="249.5" y="390.5"/><ellipse cx="264.5" cy="406.5" fill="#ADD1B2" rx="11" ry="11" style="stroke: #A80036; stroke-width: 1.0;"/><path d="M266.8438,402.1719 L267.0156,402.25 C267.2344,401.9375 267.4375,401.8438 267.7344,401.8438 C268.0313,401.8438 268.3125,401.9844 268.4688,402.25 C268.5625,402.4063 268.5781,402.5313 268.5781,402.9688 L268.5781,404.3906 C268.5781,404.8125 268.5469,405 268.4375,405.1563 C268.2656,405.375 268,405.5156 267.7344,405.5156 C267.5156,405.5156 267.2813,405.4063 267.1406,405.2656 C267,405.1406 266.9688,405.0156 266.9063,404.6094 C266.8125,404.2031 266.6406,403.9844 266.1563,403.7031 C265.6875,403.4531 265.0781,403.2969 264.5,403.2969 C262.7656,403.2969 261.5156,404.6094 261.5156,406.3906 L261.5156,407.4844 C261.5156,409.1875 262.8125,410.2813 264.8594,410.2813 C265.625,410.2813 266.3125,410.1563 266.7344,409.8906 C266.9219,409.7969 266.9219,409.7969 267.375,409.3125 C267.5625,409.125 267.7656,409.0469 267.9844,409.0469 C268.4531,409.0469 268.8438,409.4375 268.8438,409.8906 C268.8438,410.2813 268.5156,410.7344 267.9375,411.1406 C267.1875,411.6875 266.0313,411.9844 264.8125,411.9844 C261.9219,411.9844 259.8125,410.0938 259.8125,407.5156 L259.8125,406.3906 C259.8125,403.6719 261.8125,401.5938 264.4375,401.5938 C265.3125,401.5938 265.9063,401.7344 266.8438,402.1719 Z "/><text fill="#000000" font-family="sans-serif" font-size="12" lengthAdjust="spacingAndGlyphs" textLength="34" x="278.5" y="410.6543">State</text><line style="stroke: #A80036; stroke-width: 1.5;" x1="250.5" x2="314.5" y1="422.5" y2="422.5"/><line style="stroke: #A80036; stroke-width: 1.5;" x1="250.5" x2="314.5" y1="430.5" y2="430.5"/><!--MD5=[167506e288131cdf3986fedef83acd94]
class StateValue--><rect fill="#FEFECE" filter="url(#f17ip02j32orzz)" height="48" id="StateValue" style="stroke: #A80036; stroke-width: 1.5;" width="101" x="167" y="613"/><ellipse cx="182" cy="629" fill="#EB937F" rx="11" ry="11" style="stroke: #A80036; stroke-width: 1.0;"/><path d="M180.2969,629.875 L180.2969,632.2969 L184.6563,632.2969 L184.6563,631.4219 C184.6563,630.9375 184.6875,630.7969 184.7969,630.6406 C184.9688,630.3906 185.2344,630.2813 185.5,630.2813 C185.7813,630.2813 186.0625,630.4375 186.2344,630.6875 C186.3125,630.8438 186.3438,630.9844 186.3438,631.4219 L186.3438,634 L178.3438,634 C177.9531,634 177.7188,633.9531 177.5781,633.8281 C177.3594,633.6719 177.2188,633.4219 177.2188,633.1563 C177.2188,632.8594 177.375,632.5938 177.625,632.4219 C177.7813,632.3125 177.9375,632.2969 178.3438,632.2969 L178.5938,632.2969 L178.5938,625.7813 L178.3438,625.7813 C177.9219,625.7813 177.7344,625.75 177.5781,625.6406 C177.3594,625.4688 177.2188,625.2188 177.2188,624.9375 C177.2188,624.6563 177.375,624.3594 177.625,624.2031 C177.7813,624.1094 177.9063,624.0938 178.3438,624.0938 L185.9688,624.0938 L185.9688,626.6406 C185.9688,627.1094 185.9375,627.25 185.8281,627.4219 C185.6563,627.6406 185.3906,627.7813 185.125,627.7813 C184.8438,627.7813 184.5625,627.625 184.3906,627.375 C184.3125,627.2188 184.2813,627.0469 184.2813,626.6406 L184.2813,625.7813 L180.2969,625.7813 L180.2969,628.1875 L181.75,628.1875 L181.75,628.0625 C181.75,627.6094 181.7813,627.4531 181.8906,627.2813 C182.0625,627.0625 182.3281,626.9219 182.5781,626.9219 C183.0313,626.9219 183.3438,627.2344 183.4063,627.7031 C183.4219,627.8594 183.4219,627.9063 183.4219,628.0625 L183.4219,629.9844 C183.4219,630.4375 183.3906,630.5938 183.2656,630.75 C183.1094,630.9688 182.8438,631.1094 182.5938,631.1094 C182.2969,631.1094 182.0156,630.9531 181.8594,630.7031 C181.7813,630.5469 181.75,630.3906 181.75,629.9844 L181.75,629.875 Z "/><text fill="#000000" font-family="sans-serif" font-size="12" lengthAdjust="spacingAndGlyphs" textLength="69" x="196" y="633.1543">StateValue</text><line style="stroke: #A80036; stroke-width: 1.5;" x1="168" x2="267" y1="645" y2="645"/><line style="stroke: #A80036; stroke-width: 1.5;" x1="168" x2="267" y1="653" y2="653"/><!--MD5=[28491d17d5ee38c9c116625a5ffc259a]
class Combination--><rect fill="#FEFECE" filter="url(#f17ip02j32orzz)" height="48" id="Combination" style="stroke: #A80036; stroke-width: 1.5;" width="110" x="341.5" y="505"/><ellipse cx="356.5" cy="521" fill="#ADD1B2" rx="11" ry="11" style="stroke: #A80036; stroke-width: 1.0;"/><path d="M358.8438,516.6719 L359.0156,516.75 C359.2344,516.4375 359.4375,516.3438 359.7344,516.3438 C360.0313,516.3438 360.3125,516.4844 360.4688,516.75 C360.5625,516.9063 360.5781,517.0313 360.5781,517.4688 L360.5781,518.8906 C360.5781,519.3125 360.5469,519.5 360.4375,519.6563 C360.2656,519.875 360,520.0156 359.7344,520.0156 C359.5156,520.0156 359.2813,519.9063 359.1406,519.7656 C359,519.6406 358.9688,519.5156 358.9063,519.1094 C358.8125,518.7031 358.6406,518.4844 358.1563,518.2031 C357.6875,517.9531 357.0781,517.7969 356.5,517.7969 C354.7656,517.7969 353.5156,519.1094 353.5156,520.8906 L353.5156,521.9844 C353.5156,523.6875 354.8125,524.7813 356.8594,524.7813 C357.625,524.7813 358.3125,524.6563 358.7344,524.3906 C358.9219,524.2969 358.9219,524.2969 359.375,523.8125 C359.5625,523.625 359.7656,523.5469 359.9844,523.5469 C360.4531,523.5469 360.8438,523.9375 360.8438,524.3906 C360.8438,524.7813 360.5156,525.2344 359.9375,525.6406 C359.1875,526.1875 358.0313,526.4844 356.8125,526.4844 C353.9219,526.4844 351.8125,524.5938 351.8125,522.0156 L351.8125,520.8906 C351.8125,518.1719 353.8125,516.0938 356.4375,516.0938 C357.3125,516.0938 357.9063,516.2344 358.8438,516.6719 Z "/><text fill="#000000" font-family="sans-serif" font-size="12" lengthAdjust="spacingAndGlyphs" textLength="78" x="370.5" y="525.1543">Combination</text><line style="stroke: #A80036; stroke-width: 1.5;" x1="342.5" x2="450.5" y1="537" y2="537"/><line style="stroke: #A80036; stroke-width: 1.5;" x1="342.5" x2="450.5" y1="545" y2="545"/><!--MD5=[202eb055b61e3635d6abeb6d1809ebdd]
class ControllerVisitor--><rect fill="#FEFECE" filter="url(#f17ip02j32orzz)" height="60.8047" id="ControllerVisitor" style="stroke: #A80036; stroke-width: 1.5;" width="131" x="809" y="384"/><ellipse cx="824" cy="400" fill="#B4A7E5" rx="11" ry="11" style="stroke: #A80036; stroke-width: 1.0;"/><path d="M824.9531,396.7813 L824.9531,403.2969 L826.6719,403.2969 C827.125,403.2969 827.2656,403.3281 827.4375,403.4531 C827.6719,403.625 827.7813,403.875 827.7813,404.1563 C827.7813,404.7188 827.4219,405 826.6719,405 L821.5313,405 C821.125,405 820.9219,404.9531 820.7656,404.8281 C820.5469,404.6719 820.4063,404.4063 820.4063,404.1563 C820.4063,403.8594 820.5625,403.5781 820.8125,403.4219 C820.9688,403.3125 821.0938,403.2969 821.5313,403.2969 L823.25,403.2969 L823.25,396.7813 L821.5313,396.7813 C821.1094,396.7813 820.9219,396.75 820.7656,396.6406 C820.5469,396.4688 820.4063,396.2188 820.4063,395.9375 C820.4063,395.6563 820.5625,395.3594 820.8125,395.2031 C820.9688,395.1094 821.0938,395.0938 821.5313,395.0938 L826.6719,395.0938 C827.125,395.0938 827.2656,395.125 827.4375,395.2344 C827.6719,395.4063 827.7813,395.6719 827.7813,395.9375 C827.7813,396.2344 827.6406,396.5156 827.375,396.6719 C827.25,396.75 827.0625,396.7813 826.6719,396.7813 Z "/><text fill="#000000" font-family="sans-serif" font-size="12" font-style="italic" lengthAdjust="spacingAndGlyphs" textLength="99" x="838" y="404.1543">ControllerVisitor</text><line style="stroke: #A80036; stroke-width: 1.5;" x1="810" x2="939" y1="416" y2="416"/><line style="stroke: #A80036; stroke-width: 1.5;" x1="810" x2="939" y1="424" y2="424"/><text fill="#000000" font-family="sans-serif" font-size="11" lengthAdjust="spacingAndGlyphs" textLength="85" x="815" y="438.2104">visit(controller)</text><!--MD5=[cf489b19c51ee25e76ddca093e62e620]
class ProposedCombination--><rect fill="#FEFECE" filter="url(#f17ip02j32orzz)" height="48" id="ProposedCombination" style="stroke: #A80036; stroke-width: 1.5;" width="170" x="303.5" y="613"/><ellipse cx="318.5" cy="629" fill="#ADD1B2" rx="11" ry="11" style="stroke: #A80036; stroke-width: 1.0;"/><path d="M320.8438,624.6719 L321.0156,624.75 C321.2344,624.4375 321.4375,624.3438 321.7344,624.3438 C322.0313,624.3438 322.3125,624.4844 322.4688,624.75 C322.5625,624.9063 322.5781,625.0313 322.5781,625.4688 L322.5781,626.8906 C322.5781,627.3125 322.5469,627.5 322.4375,627.6563 C322.2656,627.875 322,628.0156 321.7344,628.0156 C321.5156,628.0156 321.2813,627.9063 321.1406,627.7656 C321,627.6406 320.9688,627.5156 320.9063,627.1094 C320.8125,626.7031 320.6406,626.4844 320.1563,626.2031 C319.6875,625.9531 319.0781,625.7969 318.5,625.7969 C316.7656,625.7969 315.5156,627.1094 315.5156,628.8906 L315.5156,629.9844 C315.5156,631.6875 316.8125,632.7813 318.8594,632.7813 C319.625,632.7813 320.3125,632.6563 320.7344,632.3906 C320.9219,632.2969 320.9219,632.2969 321.375,631.8125 C321.5625,631.625 321.7656,631.5469 321.9844,631.5469 C322.4531,631.5469 322.8438,631.9375 322.8438,632.3906 C322.8438,632.7813 322.5156,633.2344 321.9375,633.6406 C321.1875,634.1875 320.0313,634.4844 318.8125,634.4844 C315.9219,634.4844 313.8125,632.5938 313.8125,630.0156 L313.8125,628.8906 C313.8125,626.1719 315.8125,624.0938 318.4375,624.0938 C319.3125,624.0938 319.9063,624.2344 320.8438,624.6719 Z "/><text fill="#000000" font-family="sans-serif" font-size="12" lengthAdjust="spacingAndGlyphs" textLength="138" x="332.5" y="633.1543">ProposedCombination</text><line style="stroke: #A80036; stroke-width: 1.5;" x1="304.5" x2="472.5" y1="645" y2="645"/><line style="stroke: #A80036; stroke-width: 1.5;" x1="304.5" x2="472.5" y1="653" y2="653"/><!--MD5=[e370ee5c0c15ce04544d5f5a73174d72]
class SecretCombination--><rect fill="#FEFECE" filter="url(#f17ip02j32orzz)" height="48" id="SecretCombination" style="stroke: #A80036; stroke-width: 1.5;" width="151" x="509" y="613"/><ellipse cx="524" cy="629" fill="#ADD1B2" rx="11" ry="11" style="stroke: #A80036; stroke-width: 1.0;"/><path d="M526.3438,624.6719 L526.5156,624.75 C526.7344,624.4375 526.9375,624.3438 527.2344,624.3438 C527.5313,624.3438 527.8125,624.4844 527.9688,624.75 C528.0625,624.9063 528.0781,625.0313 528.0781,625.4688 L528.0781,626.8906 C528.0781,627.3125 528.0469,627.5 527.9375,627.6563 C527.7656,627.875 527.5,628.0156 527.2344,628.0156 C527.0156,628.0156 526.7813,627.9063 526.6406,627.7656 C526.5,627.6406 526.4688,627.5156 526.4063,627.1094 C526.3125,626.7031 526.1406,626.4844 525.6563,626.2031 C525.1875,625.9531 524.5781,625.7969 524,625.7969 C522.2656,625.7969 521.0156,627.1094 521.0156,628.8906 L521.0156,629.9844 C521.0156,631.6875 522.3125,632.7813 524.3594,632.7813 C525.125,632.7813 525.8125,632.6563 526.2344,632.3906 C526.4219,632.2969 526.4219,632.2969 526.875,631.8125 C527.0625,631.625 527.2656,631.5469 527.4844,631.5469 C527.9531,631.5469 528.3438,631.9375 528.3438,632.3906 C528.3438,632.7813 528.0156,633.2344 527.4375,633.6406 C526.6875,634.1875 525.5313,634.4844 524.3125,634.4844 C521.4219,634.4844 519.3125,632.5938 519.3125,630.0156 L519.3125,628.8906 C519.3125,626.1719 521.3125,624.0938 523.9375,624.0938 C524.8125,624.0938 525.4063,624.2344 526.3438,624.6719 Z "/><text fill="#000000" font-family="sans-serif" font-size="12" lengthAdjust="spacingAndGlyphs" textLength="119" x="538" y="633.1543">SecretCombination</text><line style="stroke: #A80036; stroke-width: 1.5;" x1="510" x2="659" y1="645" y2="645"/><line style="stroke: #A80036; stroke-width: 1.5;" x1="510" x2="659" y1="653" y2="653"/><!--MD5=[2741598bdf59a7d7e0d5c97658fd3022]
class Result--><rect fill="#FEFECE" filter="url(#f17ip02j32orzz)" height="48" id="Result" style="stroke: #A80036; stroke-width: 1.5;" width="71" x="549" y="721"/><ellipse cx="564" cy="737" fill="#ADD1B2" rx="11" ry="11" style="stroke: #A80036; stroke-width: 1.0;"/><path d="M566.3438,732.6719 L566.5156,732.75 C566.7344,732.4375 566.9375,732.3438 567.2344,732.3438 C567.5313,732.3438 567.8125,732.4844 567.9688,732.75 C568.0625,732.9063 568.0781,733.0313 568.0781,733.4688 L568.0781,734.8906 C568.0781,735.3125 568.0469,735.5 567.9375,735.6563 C567.7656,735.875 567.5,736.0156 567.2344,736.0156 C567.0156,736.0156 566.7813,735.9063 566.6406,735.7656 C566.5,735.6406 566.4688,735.5156 566.4063,735.1094 C566.3125,734.7031 566.1406,734.4844 565.6563,734.2031 C565.1875,733.9531 564.5781,733.7969 564,733.7969 C562.2656,733.7969 561.0156,735.1094 561.0156,736.8906 L561.0156,737.9844 C561.0156,739.6875 562.3125,740.7813 564.3594,740.7813 C565.125,740.7813 565.8125,740.6563 566.2344,740.3906 C566.4219,740.2969 566.4219,740.2969 566.875,739.8125 C567.0625,739.625 567.2656,739.5469 567.4844,739.5469 C567.9531,739.5469 568.3438,739.9375 568.3438,740.3906 C568.3438,740.7813 568.0156,741.2344 567.4375,741.6406 C566.6875,742.1875 565.5313,742.4844 564.3125,742.4844 C561.4219,742.4844 559.3125,740.5938 559.3125,738.0156 L559.3125,736.8906 C559.3125,734.1719 561.3125,732.0938 563.9375,732.0938 C564.8125,732.0938 565.4063,732.2344 566.3438,732.6719 Z "/><text fill="#000000" font-family="sans-serif" font-size="12" lengthAdjust="spacingAndGlyphs" textLength="39" x="578" y="741.1543">Result</text><line style="stroke: #A80036; stroke-width: 1.5;" x1="550" x2="619" y1="753" y2="753"/><line style="stroke: #A80036; stroke-width: 1.5;" x1="550" x2="619" y1="761" y2="761"/><!--MD5=[bea5b0d46523efab5ea1c1d339f396f0]
class Message--><rect fill="#FEFECE" filter="url(#f17ip02j32orzz)" height="48" id="Message" style="stroke: #A80036; stroke-width: 1.5;" width="88" x="280.5" y="721"/><ellipse cx="295.5" cy="737" fill="#EB937F" rx="11" ry="11" style="stroke: #A80036; stroke-width: 1.0;"/><path d="M293.7969,737.875 L293.7969,740.2969 L298.1563,740.2969 L298.1563,739.4219 C298.1563,738.9375 298.1875,738.7969 298.2969,738.6406 C298.4688,738.3906 298.7344,738.2813 299,738.2813 C299.2813,738.2813 299.5625,738.4375 299.7344,738.6875 C299.8125,738.8438 299.8438,738.9844 299.8438,739.4219 L299.8438,742 L291.8438,742 C291.4531,742 291.2188,741.9531 291.0781,741.8281 C290.8594,741.6719 290.7188,741.4219 290.7188,741.1563 C290.7188,740.8594 290.875,740.5938 291.125,740.4219 C291.2813,740.3125 291.4375,740.2969 291.8438,740.2969 L292.0938,740.2969 L292.0938,733.7813 L291.8438,733.7813 C291.4219,733.7813 291.2344,733.75 291.0781,733.6406 C290.8594,733.4688 290.7188,733.2188 290.7188,732.9375 C290.7188,732.6563 290.875,732.3594 291.125,732.2031 C291.2813,732.1094 291.4063,732.0938 291.8438,732.0938 L299.4688,732.0938 L299.4688,734.6406 C299.4688,735.1094 299.4375,735.25 299.3281,735.4219 C299.1563,735.6406 298.8906,735.7813 298.625,735.7813 C298.3438,735.7813 298.0625,735.625 297.8906,735.375 C297.8125,735.2188 297.7813,735.0469 297.7813,734.6406 L297.7813,733.7813 L293.7969,733.7813 L293.7969,736.1875 L295.25,736.1875 L295.25,736.0625 C295.25,735.6094 295.2813,735.4531 295.3906,735.2813 C295.5625,735.0625 295.8281,734.9219 296.0781,734.9219 C296.5313,734.9219 296.8438,735.2344 296.9063,735.7031 C296.9219,735.8594 296.9219,735.9063 296.9219,736.0625 L296.9219,737.9844 C296.9219,738.4375 296.8906,738.5938 296.7656,738.75 C296.6094,738.9688 296.3438,739.1094 296.0938,739.1094 C295.7969,739.1094 295.5156,738.9531 295.3594,738.7031 C295.2813,738.5469 295.25,738.3906 295.25,737.9844 L295.25,737.875 Z "/><text fill="#000000" font-family="sans-serif" font-size="12" lengthAdjust="spacingAndGlyphs" textLength="56" x="309.5" y="741.1543">Message</text><line style="stroke: #A80036; stroke-width: 1.5;" x1="281.5" x2="367.5" y1="753" y2="753"/><line style="stroke: #A80036; stroke-width: 1.5;" x1="281.5" x2="367.5" y1="761" y2="761"/><!--MD5=[b8cfd8c4119a3b0a7a46bfc5fc780f85]
class Error--><rect fill="#FEFECE" filter="url(#f17ip02j32orzz)" height="48" id="Error" style="stroke: #A80036; stroke-width: 1.5;" width="63" x="404" y="721"/><ellipse cx="419" cy="737" fill="#EB937F" rx="11" ry="11" style="stroke: #A80036; stroke-width: 1.0;"/><path d="M417.2969,737.875 L417.2969,740.2969 L421.6563,740.2969 L421.6563,739.4219 C421.6563,738.9375 421.6875,738.7969 421.7969,738.6406 C421.9688,738.3906 422.2344,738.2813 422.5,738.2813 C422.7813,738.2813 423.0625,738.4375 423.2344,738.6875 C423.3125,738.8438 423.3438,738.9844 423.3438,739.4219 L423.3438,742 L415.3438,742 C414.9531,742 414.7188,741.9531 414.5781,741.8281 C414.3594,741.6719 414.2188,741.4219 414.2188,741.1563 C414.2188,740.8594 414.375,740.5938 414.625,740.4219 C414.7813,740.3125 414.9375,740.2969 415.3438,740.2969 L415.5938,740.2969 L415.5938,733.7813 L415.3438,733.7813 C414.9219,733.7813 414.7344,733.75 414.5781,733.6406 C414.3594,733.4688 414.2188,733.2188 414.2188,732.9375 C414.2188,732.6563 414.375,732.3594 414.625,732.2031 C414.7813,732.1094 414.9063,732.0938 415.3438,732.0938 L422.9688,732.0938 L422.9688,734.6406 C422.9688,735.1094 422.9375,735.25 422.8281,735.4219 C422.6563,735.6406 422.3906,735.7813 422.125,735.7813 C421.8438,735.7813 421.5625,735.625 421.3906,735.375 C421.3125,735.2188 421.2813,735.0469 421.2813,734.6406 L421.2813,733.7813 L417.2969,733.7813 L417.2969,736.1875 L418.75,736.1875 L418.75,736.0625 C418.75,735.6094 418.7813,735.4531 418.8906,735.2813 C419.0625,735.0625 419.3281,734.9219 419.5781,734.9219 C420.0313,734.9219 420.3438,735.2344 420.4063,735.7031 C420.4219,735.8594 420.4219,735.9063 420.4219,736.0625 L420.4219,737.9844 C420.4219,738.4375 420.3906,738.5938 420.2656,738.75 C420.1094,738.9688 419.8438,739.1094 419.5938,739.1094 C419.2969,739.1094 419.0156,738.9531 418.8594,738.7031 C418.7813,738.5469 418.75,738.3906 418.75,737.9844 L418.75,737.875 Z "/><text fill="#000000" font-family="sans-serif" font-size="12" lengthAdjust="spacingAndGlyphs" textLength="31" x="433" y="741.1543">Error</text><line style="stroke: #A80036; stroke-width: 1.5;" x1="405" x2="466" y1="753" y2="753"/><line style="stroke: #A80036; stroke-width: 1.5;" x1="405" x2="466" y1="761" y2="761"/><!--MD5=[18eee71c88ab61f27581b8cbdd3ef5ee]
class Color--><rect fill="#FEFECE" filter="url(#f17ip02j32orzz)" height="48" id="Color" style="stroke: #A80036; stroke-width: 1.5;" width="64" x="695.5" y="613"/><ellipse cx="710.5" cy="629" fill="#EB937F" rx="11" ry="11" style="stroke: #A80036; stroke-width: 1.0;"/><path d="M708.7969,629.875 L708.7969,632.2969 L713.1563,632.2969 L713.1563,631.4219 C713.1563,630.9375 713.1875,630.7969 713.2969,630.6406 C713.4688,630.3906 713.7344,630.2813 714,630.2813 C714.2813,630.2813 714.5625,630.4375 714.7344,630.6875 C714.8125,630.8438 714.8438,630.9844 714.8438,631.4219 L714.8438,634 L706.8438,634 C706.4531,634 706.2188,633.9531 706.0781,633.8281 C705.8594,633.6719 705.7188,633.4219 705.7188,633.1563 C705.7188,632.8594 705.875,632.5938 706.125,632.4219 C706.2813,632.3125 706.4375,632.2969 706.8438,632.2969 L707.0938,632.2969 L707.0938,625.7813 L706.8438,625.7813 C706.4219,625.7813 706.2344,625.75 706.0781,625.6406 C705.8594,625.4688 705.7188,625.2188 705.7188,624.9375 C705.7188,624.6563 705.875,624.3594 706.125,624.2031 C706.2813,624.1094 706.4063,624.0938 706.8438,624.0938 L714.4688,624.0938 L714.4688,626.6406 C714.4688,627.1094 714.4375,627.25 714.3281,627.4219 C714.1563,627.6406 713.8906,627.7813 713.625,627.7813 C713.3438,627.7813 713.0625,627.625 712.8906,627.375 C712.8125,627.2188 712.7813,627.0469 712.7813,626.6406 L712.7813,625.7813 L708.7969,625.7813 L708.7969,628.1875 L710.25,628.1875 L710.25,628.0625 C710.25,627.6094 710.2813,627.4531 710.3906,627.2813 C710.5625,627.0625 710.8281,626.9219 711.0781,626.9219 C711.5313,626.9219 711.8438,627.2344 711.9063,627.7031 C711.9219,627.8594 711.9219,627.9063 711.9219,628.0625 L711.9219,629.9844 C711.9219,630.4375 711.8906,630.5938 711.7656,630.75 C711.6094,630.9688 711.3438,631.1094 711.0938,631.1094 C710.7969,631.1094 710.5156,630.9531 710.3594,630.7031 C710.2813,630.5469 710.25,630.3906 710.25,629.9844 L710.25,629.875 Z "/><text fill="#000000" font-family="sans-serif" font-size="12" lengthAdjust="spacingAndGlyphs" textLength="32" x="724.5" y="633.1543">Color</text><line style="stroke: #A80036; stroke-width: 1.5;" x1="696.5" x2="758.5" y1="645" y2="645"/><line style="stroke: #A80036; stroke-width: 1.5;" x1="696.5" x2="758.5" y1="653" y2="653"/><!--MD5=[d1bc2a5dc716c37dd141e10b95b4abcb]
link Mastermind to Logic--><path d="M627.7343,77.9019 C627.7343,77.9019 516.743,193.831 472.301,240.25 " fill="none" id="Mastermind-Logic" style="stroke: #A80036; stroke-width: 1.0;"/><polygon fill="#A80036" points="463.194,249.763,472.307,246.0276,466.6515,246.1511,466.528,240.4956,463.194,249.763" style="stroke: #A80036; stroke-width: 1.0;"/><line style="stroke: #A80036; stroke-width: 1.0;" x1="466.6515" x2="472.184" y1="246.1511" y2="240.3725"/><polygon fill="#A80036" points="636.033,69.234,628.9944,70.8017,627.7343,77.9019,634.773,76.3342,636.033,69.234" style="stroke: #A80036; stroke-width: 1.0;"/><!--MD5=[e0d6a58d416f5dd7f306d819ce9731e8]
link Mastermind to View--><path d="M694.818,78.7154 C694.818,78.7154 715.829,105.894 725.39,118.26 " fill="none" id="Mastermind-View" style="stroke: #A80036; stroke-width: 1.0;"/><polygon fill="#A80036" points="733.496,128.745,731.1555,119.1783,730.4377,124.7894,724.8266,124.0716,733.496,128.745" style="stroke: #A80036; stroke-width: 1.0;"/><line style="stroke: #A80036; stroke-width: 1.0;" x1="730.4377" x2="725.5445" y1="124.7894" y2="118.46"/><polygon fill="#A80036" points="687.478,69.222,687.9835,76.4154,694.818,78.7154,694.3125,71.5221,687.478,69.222" style="stroke: #A80036; stroke-width: 1.0;"/><!--MD5=[57070e04af1ab79c5a79c6aefe469b18]
link View to Controller--><path d="M739.437,190.242 C727.607,210.862 711.962,238.131 700.395,258.294 " fill="none" id="View-&gt;Controller" style="stroke: #A80036; stroke-width: 1.0; stroke-dasharray: 7.0,7.0;"/><polygon fill="#A80036" points="697.844,262.741,705.7925,256.9254,700.3324,258.4042,698.8536,252.944,697.844,262.741" style="stroke: #A80036; stroke-width: 1.0;"/><!--MD5=[a63dd7f30baaeb88fc8dd2ca46e0cc37]
reverse link View to ConsoleView--><path d="M808.92,202.871 C875.636,256.799 988.514,348.039 1041.04,390.494 " fill="none" id="View&lt;-ConsoleView" style="stroke: #A80036; stroke-width: 1.0;"/><polygon fill="none" points="804.171,208.034,793.018,190.017,812.972,197.146,804.171,208.034" style="stroke: #A80036; stroke-width: 1.0;"/><!--MD5=[2832c63497e0908f9b5f0801b06020b8]
link ConsoleView to SecretCombinationView--><path d="M1073.7989,450.592 C1073.7989,450.592 1087.05,558.796 1092.06,599.712 " fill="none" id="ConsoleView-SecretCombinationView" style="stroke: #A80036; stroke-width: 1.0;"/><polygon fill="#A80036" points="1093.66,612.799,1096.5364,603.3795,1093.0523,607.8361,1088.5957,604.3519,1093.66,612.799" style="stroke: #A80036; stroke-width: 1.0;"/><line style="stroke: #A80036; stroke-width: 1.0;" x1="1093.0523" x2="1092.08" y1="607.8361" y2="599.8955"/><polygon fill="#A80036" points="1072.34,438.681,1069.0991,445.1228,1073.7989,450.592,1077.0398,444.1502,1072.34,438.681" style="stroke: #A80036; stroke-width: 1.0;"/><!--MD5=[80b3196b2862d5c3880465c269745b96]
link ConsoleView to ProposedCombinationView--><path d="M1104.9028,446.6037 C1104.9028,446.6037 1236.59,562.286 1284.21,604.119 " fill="none" id="ConsoleView-ProposedCombinationView" style="stroke: #A80036; stroke-width: 1.0;"/><polygon fill="#A80036" points="1294.09,612.799,1289.9712,603.8527,1290.3346,609.4979,1284.6895,609.8613,1294.09,612.799" style="stroke: #A80036; stroke-width: 1.0;"/><line style="stroke: #A80036; stroke-width: 1.0;" x1="1290.3346" x2="1284.325" y1="609.4979" y2="604.2195"/><polygon fill="#A80036" points="1095.89,438.681,1097.7555,445.6466,1104.9028,446.6037,1103.0373,439.638,1095.89,438.681" style="stroke: #A80036; stroke-width: 1.0;"/><!--MD5=[554d5fd7839b9b6673d460e9ccc2a548]
link ConsoleView to ResultCombinationView--><path d="M1042.2093,447.8506 C1042.2093,447.8506 946.714,561.061 911.64,602.64 " fill="none" id="ConsoleView-ResultCombinationView" style="stroke: #A80036; stroke-width: 1.0;"/><polygon fill="#A80036" points="903.071,612.799,911.9312,608.4983,906.2947,608.977,905.816,603.3404,903.071,612.799" style="stroke: #A80036; stroke-width: 1.0;"/><line style="stroke: #A80036; stroke-width: 1.0;" x1="906.2947" x2="911.453" y1="608.977" y2="602.8625"/><polygon fill="#A80036" points="1049.95,438.681,1043.0231,440.6856,1042.2093,447.8506,1049.1362,445.846,1049.95,438.681" style="stroke: #A80036; stroke-width: 1.0;"/><!--MD5=[354d6deacb49030493b7fd8cb23ebdce]
reverse link Controller to StartController--><path d="M663.199,328.897 C636.832,379.522 592.824,464.017 571.633,504.705 " fill="none" id="Controller&lt;-StartController" style="stroke: #A80036; stroke-width: 1.0;"/><polygon fill="none" points="657.067,325.517,672.514,311.012,669.484,331.984,657.067,325.517" style="stroke: #A80036; stroke-width: 1.0;"/><!--MD5=[d45f03342f2432c669a4cb0ca24546da]
reverse link Controller to ProposeCombinationController--><path d="M638.451,323.165 C590.216,358.485 511.09,412.242 435.5,445 C369.535,473.587 291.469,494.14 229.194,507.643 " fill="none" id="Controller&lt;-ProposeCombinationController" style="stroke: #A80036; stroke-width: 1.0;"/><polygon fill="none" points="634.529,317.359,654.761,311.06,642.873,328.601,634.529,317.359" style="stroke: #A80036; stroke-width: 1.0;"/><!--MD5=[dfabfd7c269c7ef3ab5bdd4c723fcdb8]
reverse link Controller to ResumeController--><path d="M696.211,330.586 C710.18,381.382 733.028,464.466 744.094,504.705 " fill="none" id="Controller&lt;-ResumeController" style="stroke: #A80036; stroke-width: 1.0;"/><polygon fill="none" points="689.382,332.152,690.828,311.012,702.881,328.44,689.382,332.152" style="stroke: #A80036; stroke-width: 1.0;"/><!--MD5=[f92f20b69025c2ad68ed7511c4cba574]
link Logic to StartController--><path d="M454.0037,334.7228 C454.0037,334.7228 517.883,451.755 540.537,493.259 " fill="none" id="Logic-StartController" style="stroke: #A80036; stroke-width: 1.0;"/><polygon fill="#A80036" points="546.907,504.929,546.1056,495.1128,544.5113,500.5403,539.0838,498.946,546.907,504.929" style="stroke: #A80036; stroke-width: 1.0;"/><line style="stroke: #A80036; stroke-width: 1.0;" x1="544.5113" x2="540.6785" y1="500.5403" y2="493.518"/><polygon fill="#A80036" points="448.254,324.19,447.6179,331.373,454.0037,334.7228,454.6398,327.5398,448.254,324.19" style="stroke: #A80036; stroke-width: 1.0;"/><!--MD5=[43e1f2b9c5a069493bde6e1cd92e7600]
link Logic to ProposeCombinationController--><path d="M370.1507,308.4144 C370.1507,308.4144 272.878,350.724 231.5,384 C192.722,415.185 158.857,461.864 138.327,493.556 " fill="none" id="Logic-ProposeCombinationController" style="stroke: #A80036; stroke-width: 1.0;"/><polygon fill="#A80036" points="131.128,504.905,139.3262,499.447,133.8059,500.6826,132.5704,495.1623,131.128,504.905" style="stroke: #A80036; stroke-width: 1.0;"/><line style="stroke: #A80036; stroke-width: 1.0;" x1="133.8059" x2="138.0915" y1="500.6826" y2="493.927"/><polygon fill="#A80036" points="381.344,304.089,374.3055,302.5206,370.1507,308.4144,377.1891,309.9828,381.344,304.089" style="stroke: #A80036; stroke-width: 1.0;"/><!--MD5=[b7efa6893a17b2274f4ce816105fff5e]
link Logic to ResumeController--><path d="M485.2875,330.3263 C485.2875,330.3263 651.714,454.371 708.511,496.704 " fill="none" id="Logic-ResumeController" style="stroke: #A80036; stroke-width: 1.0;"/><polygon fill="#A80036" points="719.249,504.707,714.4228,496.1217,715.2399,501.7192,709.6423,502.5363,719.249,504.707" style="stroke: #A80036; stroke-width: 1.0;"/><line style="stroke: #A80036; stroke-width: 1.0;" x1="715.2399" x2="708.826" y1="501.7192" y2="496.9385"/><polygon fill="#A80036" points="475.666,323.155,478.0863,329.9478,485.2875,330.3263,482.8672,323.5335,475.666,323.155" style="stroke: #A80036; stroke-width: 1.0;"/><!--MD5=[6741a2aa1692821dc3ed1fc83dbb2896]
link Logic to Game--><path d="M411.8027,335.6242 C411.8027,335.6242 401.494,365.028 397.015,377.805 " fill="none" id="Logic-Game" style="stroke: #A80036; stroke-width: 1.0;"/><polygon fill="#A80036" points="392.622,390.333,399.374,383.1629,394.276,385.6145,391.8244,380.5165,392.622,390.333" style="stroke: #A80036; stroke-width: 1.0;"/><line style="stroke: #A80036; stroke-width: 1.0;" x1="394.276" x2="396.9235" y1="385.6145" y2="378.065"/><polygon fill="#A80036" points="415.773,324.3,410.0131,328.6386,411.8027,335.6242,417.5626,331.2855,415.773,324.3" style="stroke: #A80036; stroke-width: 1.0;"/><!--MD5=[153babd62505a2f5355991eb7c8026e3]
link Logic to State--><path d="M377.1715,332.123 C377.1715,332.123 336.774,366.846 319.626,381.587 " fill="none" id="Logic-State" style="stroke: #A80036; stroke-width: 1.0;"/><polygon fill="#A80036" points="309.451,390.333,318.8835,387.4996,313.2427,387.0737,313.6686,381.4329,309.451,390.333" style="stroke: #A80036; stroke-width: 1.0;"/><line style="stroke: #A80036; stroke-width: 1.0;" x1="313.2427" x2="319.31" y1="387.0737" y2="381.8585"/><polygon fill="#A80036" points="386.271,324.3,379.1136,325.1783,377.1715,332.123,384.3289,331.2447,386.271,324.3" style="stroke: #A80036; stroke-width: 1.0;"/><!--MD5=[04ee8f1a549f099cd30b455604f649af]
link State to StateValue--><path d="M274.2325,450.1869 C274.2325,450.1869 256.957,518.721 246.5,553 C241.726,568.649 235.866,585.744 230.666,600.331 " fill="none" id="State-StateValue" style="stroke: #A80036; stroke-width: 1.0;"/><polygon fill="#A80036" points="226.126,612.909,232.9445,605.8021,227.8239,608.2061,225.4198,603.0855,226.126,612.909" style="stroke: #A80036; stroke-width: 1.0;"/><line style="stroke: #A80036; stroke-width: 1.0;" x1="227.8239" x2="230.5395" y1="608.2061" y2="600.681"/><polygon fill="#A80036" points="277.069,438.527,271.7641,443.4115,274.2325,450.1869,279.5374,445.3025,277.069,438.527" style="stroke: #A80036; stroke-width: 1.0;"/><!--MD5=[02c3a1220d8b6c5d05faf2daf78885f9]
link Game to Combination--><path d="M388.2295,450.4703 C388.2295,450.4703 391.262,478.895 392.638,491.789 " fill="none" id="Game-Combination" style="stroke: #A80036; stroke-width: 1.0;"/><polygon fill="#A80036" points="394.046,504.993,397.069,495.6195,393.5157,500.0212,389.1141,496.468,394.046,504.993" style="stroke: #A80036; stroke-width: 1.0;"/><line style="stroke: #A80036; stroke-width: 1.0;" x1="393.5157" x2="392.667" y1="500.0212" y2="492.0665"/><polygon fill="#A80036" points="386.957,438.538,383.6158,444.9283,388.2295,450.4703,391.5707,444.08,386.957,438.538" style="stroke: #A80036; stroke-width: 1.0;"/><!--MD5=[ae37b17517c5efafb2d85820dda60839]
link Controller to ControllerVisitor--><path d="M719.349,311.019 C749.082,330.658 792.17,359.119 825.397,381.066 " fill="none" id="Controller-&gt;ControllerVisitor" style="stroke: #A80036; stroke-width: 1.0; stroke-dasharray: 7.0,7.0;"/><polygon fill="#A80036" points="829.811,383.982,824.5064,375.6837,825.6391,381.226,820.0968,382.3587,829.811,383.982" style="stroke: #A80036; stroke-width: 1.0;"/><!--MD5=[f165b4dc51fb23ae2f8abee7a18efa47]
reverse link ControllerVisitor to View--><path d="M852.12,365.516 C828,313.802 790.375,233.13 770.267,190.017 " fill="none" id="ControllerVisitor&lt;-View" style="stroke: #A80036; stroke-width: 1.0;"/><polygon fill="none" points="858.528,362.695,860.638,383.779,845.84,368.613,858.528,362.695" style="stroke: #A80036; stroke-width: 1.0;"/><!--MD5=[af3c341f28b4ad1078e652ece2043f79]
link Controller to Game--><path d="M637.954,307.472 C579.004,332.133 478.489,374.181 423.417,397.22 " fill="none" id="Controller-&gt;Game" style="stroke: #A80036; stroke-width: 1.0;"/><polygon fill="#A80036" points="418.557,399.253,428.4034,399.4708,423.1698,397.3238,425.3168,392.0902,418.557,399.253" style="stroke: #A80036; stroke-width: 1.0;"/><!--MD5=[680da7a522096492fc62467c7a6dd068]
link Controller to State--><path d="M637.907,296.573 C569.252,310.117 437.679,339.575 332.5,384 C328.496,385.691 324.422,387.65 320.416,389.738 " fill="none" id="Controller-&gt;State" style="stroke: #A80036; stroke-width: 1.0;"/><polygon fill="#A80036" points="315.751,392.24,325.5727,391.5089,320.1567,389.8757,321.7898,384.4597,315.751,392.24" style="stroke: #A80036; stroke-width: 1.0;"/><!--MD5=[2f10888865b2f559cc24db01ac34cee3]
reverse link Combination to ProposedCombination--><path d="M393.253,573.024 C392.23,586.579 391.139,601.038 390.26,612.678 " fill="none" id="Combination&lt;-ProposedCombination" style="stroke: #A80036; stroke-width: 1.0;"/><polygon fill="none" points="386.279,572.417,394.764,553,400.239,573.471,386.279,572.417" style="stroke: #A80036; stroke-width: 1.0;"/><!--MD5=[ed81d3472c9069d2de3c2f5cd308846f]
reverse link Combination to SecretCombination--><path d="M454.834,562.89 C483.563,579.089 517.51,598.229 543.462,612.862 " fill="none" id="Combination&lt;-SecretCombination" style="stroke: #A80036; stroke-width: 1.0;"/><polygon fill="none" points="451.277,568.921,437.293,553,458.153,556.726,451.277,568.921" style="stroke: #A80036; stroke-width: 1.0;"/><!--MD5=[f874647c3c9f57491b6e7b7bf233051a]
link SecretCombination to Result--><path d="M584.5,661 C584.5,677.003 584.5,698.4461 584.5,715.528 " fill="none" id="SecretCombination-&gt;Result" style="stroke: #A80036; stroke-width: 1.0; stroke-dasharray: 7.0,7.0;"/><polygon fill="#A80036" points="584.5,720.6784,588.5,711.6784,584.5,715.6784,580.5,711.6784,584.5,720.6784" style="stroke: #A80036; stroke-width: 1.0;"/><!--MD5=[b9347c562a69bbba75d70bb21299d009]
link ProposedCombination to Message--><path d="M374.613,661 C364.868,677.1409 351.781,698.8162 341.425,715.9688 " fill="none" id="ProposedCombination-&gt;Message" style="stroke: #A80036; stroke-width: 1.0; stroke-dasharray: 7.0,7.0;"/><polygon fill="#A80036" points="338.581,720.6784,346.6573,715.0417,341.1655,716.3982,339.809,710.9064,338.581,720.6784" style="stroke: #A80036; stroke-width: 1.0;"/><!--MD5=[03e1adeaed11e2ac298b9b43cd912fbb]
link ProposedCombination to Error--><path d="M398.698,661 C405.855,677.1409 415.466,698.8162 423.071,715.9688 " fill="none" id="ProposedCombination-&gt;Error" style="stroke: #A80036; stroke-width: 1.0; stroke-dasharray: 7.0,7.0;"/><polygon fill="#A80036" points="425.159,720.6784,425.1669,710.8295,423.132,716.1077,417.8538,714.0728,425.159,720.6784" style="stroke: #A80036; stroke-width: 1.0;"/><!--MD5=[6e8433e42d71f9427401b78cd95c6f0c]
link Combination to Color--><path d="M463.3254,548.54 C463.3254,548.54 638.496,598.356 677.5,613 C679.317,613.682 681.16,614.401 683.015,615.146 " fill="none" id="Combination-Color" style="stroke: #A80036; stroke-width: 1.0;"/><polygon fill="#A80036" points="695.243,620.341,688.5233,613.1406,690.641,618.3861,685.3955,620.5039,695.243,620.341" style="stroke: #A80036; stroke-width: 1.0;"/><line style="stroke: #A80036; stroke-width: 1.0;" x1="690.641" x2="683.278" y1="618.3861" y2="615.258"/><polygon fill="#A80036" points="451.77,545.304,456.4691,550.7738,463.3254,548.54,458.6264,543.0702,451.77,545.304" style="stroke: #A80036; stroke-width: 1.0;"/><!--MD5=[10d6e0c2a6b75a8086cc1f221a33712e]
@startuml
class Mastermind {
play()
}

Mastermind *- -> Logic
Mastermind *- -> View

interface View{
interact(controller)
}
View ..> Controller

class ConsoleView

View <|- - - ConsoleView
ConsoleView *- - -> SecretCombinationView
ConsoleView *- - -> ProposedCombinationView
ConsoleView *- - -> ResultCombinationView

class Controller

Controller <|- - - StartController
Controller <|- - - ProposeCombinationController
Controller <|- - - ResumeController


class Logic{
mapstate
getController()
}
Logic *-down-> StartController
Logic *-down-> ProposeCombinationController
Logic *-down-> ResumeController
Logic *-down-> Game
Logic *-down-> State
State *- - -> StateValue
Game *- -> Combination

interface ControllerVisitor {
visit(controller)
}

Controller ..> ControllerVisitor

ControllerVisitor <|- - View

Controller - -> Game
Controller - -> State


Combination <|- - ProposedCombination
Combination <|- - SecretCombination
SecretCombination ..> Result
ProposedCombination ..> Message
ProposedCombination ..> Error
 Combination *- -> Color
enum Color
enum Message
enum Error
enum StateValue
@enduml

PlantUML version 1.2019.11(Sun Sep 22 10:02:15 UTC 2019)
(GPL source distribution)
Java Runtime: Java(TM) SE Runtime Environment
JVM: Java HotSpot(TM) 64-Bit Server VM
Java Version: 1.7.0_25-b15
Operating System: Linux
Default Encoding: UTF-8
Language: en
Country: US
--></g></svg>